<?xml version="1.0" encoding="utf-8" standalone="no"?>
<!DOCTYPE svg PUBLIC "-//W3C//DTD SVG 1.1//EN"
  "http://www.w3.org/Graphics/SVG/1.1/DTD/svg11.dtd">
<svg xmlns:xlink="http://www.w3.org/1999/xlink" width="1728pt" height="576pt" viewBox="0 0 1728 576" xmlns="http://www.w3.org/2000/svg" version="1.1">
 <metadata>
  <rdf:RDF xmlns:dc="http://purl.org/dc/elements/1.1/" xmlns:cc="http://creativecommons.org/ns#" xmlns:rdf="http://www.w3.org/1999/02/22-rdf-syntax-ns#">
   <cc:Work>
    <dc:type rdf:resource="http://purl.org/dc/dcmitype/StillImage"/>
    <dc:date>2022-04-16T14:08:17.351019</dc:date>
    <dc:format>image/svg+xml</dc:format>
    <dc:creator>
     <cc:Agent>
      <dc:title>Matplotlib v3.5.1, https://matplotlib.org/</dc:title>
     </cc:Agent>
    </dc:creator>
   </cc:Work>
  </rdf:RDF>
 </metadata>
 <defs>
  <style type="text/css">*{stroke-linejoin: round; stroke-linecap: butt}</style>
 </defs>
 <g id="figure_1">
  <g id="patch_1">
   <path d="M 0 576 
L 1728 576 
L 1728 0 
L 0 0 
L 0 576 
z
" style="fill: none"/>
  </g>
  <g id="axes_1">
   <g id="patch_2">
    <path d="M 216 504 
L 1555.2 504 
L 1555.2 69.12 
L 216 69.12 
z
" style="fill: #ffffff"/>
   </g>
   <g id="PolyCollection_1">
    <path d="M 479.782653 401.522123 
L 479.780984 401.522123 
L 479.78115 399.27221 
L 479.781598 397.022298 
L 479.780317 394.772385 
L 479.781666 392.522473 
L 479.781814 390.27256 
L 479.781172 388.022648 
L 479.781663 385.772735 
L 479.781816 383.522823 
L 479.781248 381.272911 
L 479.780675 379.022998 
L 479.780253 376.773086 
L 479.780658 374.523173 
L 479.776684 372.273261 
L 479.775224 370.023348 
L 479.768568 367.773436 
L 479.762439 365.523523 
L 479.75077 363.273611 
L 479.737583 361.023699 
L 479.701764 358.773786 
L 479.647313 356.523874 
L 479.57035 354.273961 
L 479.475472 352.024049 
L 479.268918 349.774136 
L 478.988711 347.524224 
L 478.599309 345.274311 
L 478.04607 343.024399 
L 477.276023 340.774487 
L 476.173498 338.524574 
L 474.64613 336.274662 
L 472.686051 334.024749 
L 469.845893 331.774837 
L 466.395615 329.524924 
L 461.280535 327.275012 
L 455.358845 325.025099 
L 447.745972 322.775187 
L 438.970739 320.525275 
L 428.467453 318.275362 
L 416.938196 316.02545 
L 404.644765 313.775537 
L 391.606482 311.525625 
L 377.911419 309.275712 
L 362.836843 307.0258 
L 348.042974 304.775887 
L 332.92928 302.525975 
L 317.95694 300.276062 
L 306.621842 298.02615 
L 295.717942 295.776238 
L 287.961341 293.526325 
L 282.468768 291.276413 
L 278.309129 289.0265 
L 276.872727 286.776588 
L 278.218954 284.526675 
L 282.0307 282.276763 
L 288.539105 280.02685 
L 296.444234 277.776938 
L 305.523451 275.527026 
L 316.562985 273.277113 
L 327.39942 271.027201 
L 340.11123 268.777288 
L 352.59092 266.527376 
L 366.322129 264.277463 
L 379.406174 262.027551 
L 392.427103 259.777638 
L 404.485258 257.527726 
L 415.685511 255.277814 
L 424.973072 253.027901 
L 434.057791 250.777989 
L 441.869618 248.528076 
L 448.974008 246.278164 
L 455.242677 244.028251 
L 460.674436 241.778339 
L 465.09374 239.528426 
L 468.579974 237.278514 
L 471.21544 235.028602 
L 473.198567 232.778689 
L 474.671861 230.528777 
L 475.824135 228.278864 
L 476.674387 226.028952 
L 477.40751 223.779039 
L 477.988771 221.529127 
L 478.375154 219.279214 
L 478.630956 217.029302 
L 478.895213 214.77939 
L 479.070792 212.529477 
L 479.249828 210.279565 
L 479.367317 208.029652 
L 479.447129 205.77974 
L 479.501614 203.529827 
L 479.590388 201.279915 
L 479.654536 199.030002 
L 479.696215 196.78009 
L 479.722419 194.530178 
L 479.755991 192.280265 
L 479.758765 190.030353 
L 479.766616 187.78044 
L 479.775248 185.530528 
L 479.778203 183.280615 
L 479.780191 181.030703 
L 479.780085 178.78079 
L 479.783551 178.78079 
L 479.783551 178.78079 
L 479.783445 181.030703 
L 479.785433 183.280615 
L 479.788388 185.530528 
L 479.797021 187.78044 
L 479.804871 190.030353 
L 479.807645 192.280265 
L 479.841217 194.530178 
L 479.867422 196.78009 
L 479.9091 199.030002 
L 479.973248 201.279915 
L 480.062022 203.529827 
L 480.116507 205.77974 
L 480.19632 208.029652 
L 480.313809 210.279565 
L 480.492845 212.529477 
L 480.668423 214.77939 
L 480.93268 217.029302 
L 481.188482 219.279214 
L 481.574865 221.529127 
L 482.156127 223.779039 
L 482.889249 226.028952 
L 483.739501 228.278864 
L 484.891775 230.528777 
L 486.365069 232.778689 
L 488.348196 235.028602 
L 490.983663 237.278514 
L 494.469896 239.528426 
L 498.8892 241.778339 
L 504.320959 244.028251 
L 510.589629 246.278164 
L 517.694018 248.528076 
L 525.505845 250.777989 
L 534.590565 253.027901 
L 543.878125 255.277814 
L 555.078379 257.527726 
L 567.136533 259.777638 
L 580.157462 262.027551 
L 593.241508 264.277463 
L 606.972717 266.527376 
L 619.452407 268.777288 
L 632.164216 271.027201 
L 643.000651 273.277113 
L 654.040186 275.527026 
L 663.119402 277.776938 
L 671.024532 280.02685 
L 677.532937 282.276763 
L 681.344682 284.526675 
L 682.690909 286.776588 
L 681.254507 289.0265 
L 677.094869 291.276413 
L 671.602295 293.526325 
L 663.845695 295.776238 
L 652.941795 298.02615 
L 641.606697 300.276062 
L 626.634357 302.525975 
L 611.520662 304.775887 
L 596.726793 307.0258 
L 581.652217 309.275712 
L 567.957154 311.525625 
L 554.918871 313.775537 
L 542.62544 316.02545 
L 531.096183 318.275362 
L 520.592897 320.525275 
L 511.817665 322.775187 
L 504.204792 325.025099 
L 498.283101 327.275012 
L 493.168021 329.524924 
L 489.717744 331.774837 
L 486.877586 334.024749 
L 484.917506 336.274662 
L 483.390138 338.524574 
L 482.287613 340.774487 
L 481.517566 343.024399 
L 480.964328 345.274311 
L 480.574925 347.524224 
L 480.294719 349.774136 
L 480.088165 352.024049 
L 479.993286 354.273961 
L 479.916324 356.523874 
L 479.861873 358.773786 
L 479.826054 361.023699 
L 479.812866 363.273611 
L 479.801198 365.523523 
L 479.795069 367.773436 
L 479.788412 370.023348 
L 479.786953 372.273261 
L 479.782978 374.523173 
L 479.783383 376.773086 
L 479.782962 379.022998 
L 479.782388 381.272911 
L 479.781821 383.522823 
L 479.781973 385.772735 
L 479.782465 388.022648 
L 479.781822 390.27256 
L 479.78197 392.522473 
L 479.78332 394.772385 
L 479.782038 397.022298 
L 479.782486 399.27221 
L 479.782653 401.522123 
z
" clip-path="url(#p7d2a234cca)" style="fill: #1f77b4; fill-opacity: 0.3"/>
   </g>
   <g id="PolyCollection_2">
    <path d="M 1291.422467 444.85777 
L 1291.413896 444.85777 
L 1291.410826 441.119837 
L 1291.413642 437.381904 
L 1291.416378 433.643971 
L 1291.402476 429.906039 
L 1291.392817 426.168106 
L 1291.408551 422.430173 
L 1291.393157 418.692241 
L 1291.379736 414.954308 
L 1291.379542 411.216375 
L 1291.375723 407.478443 
L 1291.382284 403.74051 
L 1291.370413 400.002577 
L 1291.373987 396.264644 
L 1291.360031 392.526712 
L 1291.31315 388.788779 
L 1291.270074 385.050846 
L 1291.191638 381.312914 
L 1291.07609 377.574981 
L 1290.902186 373.837048 
L 1290.76203 370.099116 
L 1290.395196 366.361183 
L 1290.048068 362.62325 
L 1289.543852 358.885317 
L 1289.128792 355.147385 
L 1288.34289 351.409452 
L 1287.533975 347.671519 
L 1286.010907 343.933587 
L 1284.259466 340.195654 
L 1282.029025 336.457721 
L 1279.129865 332.719789 
L 1275.225572 328.981856 
L 1269.56255 325.243923 
L 1261.657401 321.50599 
L 1251.44927 317.768058 
L 1238.808376 314.030125 
L 1222.04939 310.292192 
L 1202.61029 306.55426 
L 1180.776789 302.816327 
L 1155.459292 299.078394 
L 1130.766334 295.340461 
L 1108.491178 291.602529 
L 1093.309198 287.864596 
L 1088.509091 284.126663 
L 1096.308577 280.388731 
L 1114.314117 276.650798 
L 1139.353801 272.912865 
L 1169.318537 269.174933 
L 1196.927328 265.437 
L 1220.196051 261.699067 
L 1238.82372 257.961134 
L 1252.584275 254.223202 
L 1263.013787 250.485269 
L 1270.264521 246.747336 
L 1276.016609 243.009404 
L 1279.458013 239.271471 
L 1282.267496 235.533538 
L 1284.373674 231.795606 
L 1285.874253 228.057673 
L 1287.285443 224.31974 
L 1288.041991 220.581807 
L 1288.809568 216.843875 
L 1289.164382 213.105942 
L 1289.492692 209.368009 
L 1289.696473 205.630077 
L 1289.933429 201.892144 
L 1290.201141 198.154211 
L 1290.427301 194.416278 
L 1290.561217 190.678346 
L 1290.752621 186.940413 
L 1290.851843 183.20248 
L 1290.955913 179.464548 
L 1291.102704 175.726615 
L 1291.158484 171.988682 
L 1291.219239 168.25075 
L 1291.287159 164.512817 
L 1291.347297 160.774884 
L 1291.367763 157.036951 
L 1291.380866 153.299019 
L 1291.384944 149.561086 
L 1291.383364 145.823153 
L 1291.389775 142.085221 
L 1291.400243 138.347288 
L 1291.401711 134.609355 
L 1291.41093 130.871423 
L 1291.413879 127.13349 
L 1291.416379 123.395557 
L 1291.415441 119.657624 
L 1291.412854 115.919692 
L 1291.412947 112.181759 
L 1291.413998 108.443826 
L 1291.415437 104.705894 
L 1291.413746 100.967961 
L 1291.388558 97.230028 
L 1291.311887 93.492096 
L 1291.183698 89.754163 
L 1291.285423 86.01623 
L 1291.360062 82.278297 
L 1291.402152 78.540365 
L 1291.415697 74.802432 
L 1291.420666 74.802432 
L 1291.420666 74.802432 
L 1291.434212 78.540365 
L 1291.476302 82.278297 
L 1291.550941 86.01623 
L 1291.652665 89.754163 
L 1291.524477 93.492096 
L 1291.447806 97.230028 
L 1291.422618 100.967961 
L 1291.420926 104.705894 
L 1291.422366 108.443826 
L 1291.423416 112.181759 
L 1291.42351 115.919692 
L 1291.420923 119.657624 
L 1291.419985 123.395557 
L 1291.422484 127.13349 
L 1291.425434 130.871423 
L 1291.434652 134.609355 
L 1291.436121 138.347288 
L 1291.446589 142.085221 
L 1291.453 145.823153 
L 1291.451419 149.561086 
L 1291.455497 153.299019 
L 1291.4686 157.036951 
L 1291.489067 160.774884 
L 1291.549205 164.512817 
L 1291.617124 168.25075 
L 1291.67788 171.988682 
L 1291.73366 175.726615 
L 1291.880451 179.464548 
L 1291.984521 183.20248 
L 1292.083742 186.940413 
L 1292.275147 190.678346 
L 1292.409063 194.416278 
L 1292.635222 198.154211 
L 1292.902934 201.892144 
L 1293.139891 205.630077 
L 1293.343671 209.368009 
L 1293.671982 213.105942 
L 1294.026795 216.843875 
L 1294.794373 220.581807 
L 1295.55092 224.31974 
L 1296.96211 228.057673 
L 1298.46269 231.795606 
L 1300.568868 235.533538 
L 1303.378351 239.271471 
L 1306.819754 243.009404 
L 1312.571843 246.747336 
L 1319.822576 250.485269 
L 1330.252088 254.223202 
L 1344.012643 257.961134 
L 1362.640312 261.699067 
L 1385.909036 265.437 
L 1413.517826 269.174933 
L 1443.482563 272.912865 
L 1468.522247 276.650798 
L 1486.527786 280.388731 
L 1494.327273 284.126663 
L 1489.527166 287.864596 
L 1474.345186 291.602529 
L 1452.07003 295.340461 
L 1427.377072 299.078394 
L 1402.059574 302.816327 
L 1380.226074 306.55426 
L 1360.786974 310.292192 
L 1344.027987 314.030125 
L 1331.387094 317.768058 
L 1321.178963 321.50599 
L 1313.273814 325.243923 
L 1307.610792 328.981856 
L 1303.706499 332.719789 
L 1300.807338 336.457721 
L 1298.576898 340.195654 
L 1296.825456 343.933587 
L 1295.302389 347.671519 
L 1294.493474 351.409452 
L 1293.707572 355.147385 
L 1293.292512 358.885317 
L 1292.788296 362.62325 
L 1292.441168 366.361183 
L 1292.074334 370.099116 
L 1291.934178 373.837048 
L 1291.760273 377.574981 
L 1291.644726 381.312914 
L 1291.56629 385.050846 
L 1291.523214 388.788779 
L 1291.476332 392.526712 
L 1291.462377 396.264644 
L 1291.465951 400.002577 
L 1291.454079 403.74051 
L 1291.46064 407.478443 
L 1291.456821 411.216375 
L 1291.456628 414.954308 
L 1291.443207 418.692241 
L 1291.427812 422.430173 
L 1291.443547 426.168106 
L 1291.433887 429.906039 
L 1291.419986 433.643971 
L 1291.422722 437.381904 
L 1291.425538 441.119837 
L 1291.422467 444.85777 
z
" clip-path="url(#p7d2a234cca)" style="fill: #ff7f0e; fill-opacity: 0.3"/>
   </g>
   <g id="matplotlib.axis_1">
    <g id="xtick_1">
     <g id="line2d_1">
      <defs>
       <path id="m6532db6f6b" d="M 0 0 
L 0 3.5 
" style="stroke: #000000; stroke-width: 0.8"/>
      </defs>
      <g>
       <use xlink:href="#m6532db6f6b" x="479.781818" y="504" style="stroke: #000000; stroke-width: 0.8"/>
      </g>
     </g>
     <g id="text_1">
      <!-- Wall -->
      <g transform="translate(469.314631 518.598438)scale(0.1 -0.1)">
       <defs>
        <path id="DejaVuSans-57" d="M 213 4666 
L 850 4666 
L 1831 722 
L 2809 4666 
L 3519 4666 
L 4500 722 
L 5478 4666 
L 6119 4666 
L 4947 0 
L 4153 0 
L 3169 4050 
L 2175 0 
L 1381 0 
L 213 4666 
z
" transform="scale(0.015625)"/>
        <path id="DejaVuSans-61" d="M 2194 1759 
Q 1497 1759 1228 1600 
Q 959 1441 959 1056 
Q 959 750 1161 570 
Q 1363 391 1709 391 
Q 2188 391 2477 730 
Q 2766 1069 2766 1631 
L 2766 1759 
L 2194 1759 
z
M 3341 1997 
L 3341 0 
L 2766 0 
L 2766 531 
Q 2569 213 2275 61 
Q 1981 -91 1556 -91 
Q 1019 -91 701 211 
Q 384 513 384 1019 
Q 384 1609 779 1909 
Q 1175 2209 1959 2209 
L 2766 2209 
L 2766 2266 
Q 2766 2663 2505 2880 
Q 2244 3097 1772 3097 
Q 1472 3097 1187 3025 
Q 903 2953 641 2809 
L 641 3341 
Q 956 3463 1253 3523 
Q 1550 3584 1831 3584 
Q 2591 3584 2966 3190 
Q 3341 2797 3341 1997 
z
" transform="scale(0.015625)"/>
        <path id="DejaVuSans-6c" d="M 603 4863 
L 1178 4863 
L 1178 0 
L 603 0 
L 603 4863 
z
" transform="scale(0.015625)"/>
       </defs>
       <use xlink:href="#DejaVuSans-57"/>
       <use xlink:href="#DejaVuSans-61" x="92.501953"/>
       <use xlink:href="#DejaVuSans-6c" x="153.78125"/>
       <use xlink:href="#DejaVuSans-6c" x="181.564453"/>
      </g>
     </g>
    </g>
    <g id="xtick_2">
     <g id="line2d_2">
      <g>
       <use xlink:href="#m6532db6f6b" x="1291.418182" y="504" style="stroke: #000000; stroke-width: 0.8"/>
      </g>
     </g>
     <g id="text_2">
      <!-- Floor -->
      <g transform="translate(1278.979119 518.598438)scale(0.1 -0.1)">
       <defs>
        <path id="DejaVuSans-46" d="M 628 4666 
L 3309 4666 
L 3309 4134 
L 1259 4134 
L 1259 2759 
L 3109 2759 
L 3109 2228 
L 1259 2228 
L 1259 0 
L 628 0 
L 628 4666 
z
" transform="scale(0.015625)"/>
        <path id="DejaVuSans-6f" d="M 1959 3097 
Q 1497 3097 1228 2736 
Q 959 2375 959 1747 
Q 959 1119 1226 758 
Q 1494 397 1959 397 
Q 2419 397 2687 759 
Q 2956 1122 2956 1747 
Q 2956 2369 2687 2733 
Q 2419 3097 1959 3097 
z
M 1959 3584 
Q 2709 3584 3137 3096 
Q 3566 2609 3566 1747 
Q 3566 888 3137 398 
Q 2709 -91 1959 -91 
Q 1206 -91 779 398 
Q 353 888 353 1747 
Q 353 2609 779 3096 
Q 1206 3584 1959 3584 
z
" transform="scale(0.015625)"/>
        <path id="DejaVuSans-72" d="M 2631 2963 
Q 2534 3019 2420 3045 
Q 2306 3072 2169 3072 
Q 1681 3072 1420 2755 
Q 1159 2438 1159 1844 
L 1159 0 
L 581 0 
L 581 3500 
L 1159 3500 
L 1159 2956 
Q 1341 3275 1631 3429 
Q 1922 3584 2338 3584 
Q 2397 3584 2469 3576 
Q 2541 3569 2628 3553 
L 2631 2963 
z
" transform="scale(0.015625)"/>
       </defs>
       <use xlink:href="#DejaVuSans-46"/>
       <use xlink:href="#DejaVuSans-6c" x="57.519531"/>
       <use xlink:href="#DejaVuSans-6f" x="85.302734"/>
       <use xlink:href="#DejaVuSans-6f" x="146.484375"/>
       <use xlink:href="#DejaVuSans-72" x="207.666016"/>
      </g>
     </g>
    </g>
    <g id="text_3">
     <!-- Surface -->
     <g transform="translate(866.551563 532.276562)scale(0.1 -0.1)">
      <defs>
       <path id="DejaVuSans-53" d="M 3425 4513 
L 3425 3897 
Q 3066 4069 2747 4153 
Q 2428 4238 2131 4238 
Q 1616 4238 1336 4038 
Q 1056 3838 1056 3469 
Q 1056 3159 1242 3001 
Q 1428 2844 1947 2747 
L 2328 2669 
Q 3034 2534 3370 2195 
Q 3706 1856 3706 1288 
Q 3706 609 3251 259 
Q 2797 -91 1919 -91 
Q 1588 -91 1214 -16 
Q 841 59 441 206 
L 441 856 
Q 825 641 1194 531 
Q 1563 422 1919 422 
Q 2459 422 2753 634 
Q 3047 847 3047 1241 
Q 3047 1584 2836 1778 
Q 2625 1972 2144 2069 
L 1759 2144 
Q 1053 2284 737 2584 
Q 422 2884 422 3419 
Q 422 4038 858 4394 
Q 1294 4750 2059 4750 
Q 2388 4750 2728 4690 
Q 3069 4631 3425 4513 
z
" transform="scale(0.015625)"/>
       <path id="DejaVuSans-75" d="M 544 1381 
L 544 3500 
L 1119 3500 
L 1119 1403 
Q 1119 906 1312 657 
Q 1506 409 1894 409 
Q 2359 409 2629 706 
Q 2900 1003 2900 1516 
L 2900 3500 
L 3475 3500 
L 3475 0 
L 2900 0 
L 2900 538 
Q 2691 219 2414 64 
Q 2138 -91 1772 -91 
Q 1169 -91 856 284 
Q 544 659 544 1381 
z
M 1991 3584 
L 1991 3584 
z
" transform="scale(0.015625)"/>
       <path id="DejaVuSans-66" d="M 2375 4863 
L 2375 4384 
L 1825 4384 
Q 1516 4384 1395 4259 
Q 1275 4134 1275 3809 
L 1275 3500 
L 2222 3500 
L 2222 3053 
L 1275 3053 
L 1275 0 
L 697 0 
L 697 3053 
L 147 3053 
L 147 3500 
L 697 3500 
L 697 3744 
Q 697 4328 969 4595 
Q 1241 4863 1831 4863 
L 2375 4863 
z
" transform="scale(0.015625)"/>
       <path id="DejaVuSans-63" d="M 3122 3366 
L 3122 2828 
Q 2878 2963 2633 3030 
Q 2388 3097 2138 3097 
Q 1578 3097 1268 2742 
Q 959 2388 959 1747 
Q 959 1106 1268 751 
Q 1578 397 2138 397 
Q 2388 397 2633 464 
Q 2878 531 3122 666 
L 3122 134 
Q 2881 22 2623 -34 
Q 2366 -91 2075 -91 
Q 1284 -91 818 406 
Q 353 903 353 1747 
Q 353 2603 823 3093 
Q 1294 3584 2113 3584 
Q 2378 3584 2631 3529 
Q 2884 3475 3122 3366 
z
" transform="scale(0.015625)"/>
       <path id="DejaVuSans-65" d="M 3597 1894 
L 3597 1613 
L 953 1613 
Q 991 1019 1311 708 
Q 1631 397 2203 397 
Q 2534 397 2845 478 
Q 3156 559 3463 722 
L 3463 178 
Q 3153 47 2828 -22 
Q 2503 -91 2169 -91 
Q 1331 -91 842 396 
Q 353 884 353 1716 
Q 353 2575 817 3079 
Q 1281 3584 2069 3584 
Q 2775 3584 3186 3129 
Q 3597 2675 3597 1894 
z
M 3022 2063 
Q 3016 2534 2758 2815 
Q 2500 3097 2075 3097 
Q 1594 3097 1305 2825 
Q 1016 2553 972 2059 
L 3022 2063 
z
" transform="scale(0.015625)"/>
      </defs>
      <use xlink:href="#DejaVuSans-53"/>
      <use xlink:href="#DejaVuSans-75" x="63.476562"/>
      <use xlink:href="#DejaVuSans-72" x="126.855469"/>
      <use xlink:href="#DejaVuSans-66" x="167.96875"/>
      <use xlink:href="#DejaVuSans-61" x="203.173828"/>
      <use xlink:href="#DejaVuSans-63" x="264.453125"/>
      <use xlink:href="#DejaVuSans-65" x="319.433594"/>
     </g>
    </g>
   </g>
   <g id="matplotlib.axis_2">
    <g id="ytick_1">
     <g id="line2d_3">
      <defs>
       <path id="m8e65868119" d="M 0 0 
L -3.5 0 
" style="stroke: #000000; stroke-width: 0.8"/>
      </defs>
      <g>
       <use xlink:href="#m8e65868119" x="216" y="504" style="stroke: #000000; stroke-width: 0.8"/>
      </g>
     </g>
     <g id="text_4">
      <!-- −0.15 -->
      <g transform="translate(178.354688 507.799219)scale(0.1 -0.1)">
       <defs>
        <path id="DejaVuSans-2212" d="M 678 2272 
L 4684 2272 
L 4684 1741 
L 678 1741 
L 678 2272 
z
" transform="scale(0.015625)"/>
        <path id="DejaVuSans-30" d="M 2034 4250 
Q 1547 4250 1301 3770 
Q 1056 3291 1056 2328 
Q 1056 1369 1301 889 
Q 1547 409 2034 409 
Q 2525 409 2770 889 
Q 3016 1369 3016 2328 
Q 3016 3291 2770 3770 
Q 2525 4250 2034 4250 
z
M 2034 4750 
Q 2819 4750 3233 4129 
Q 3647 3509 3647 2328 
Q 3647 1150 3233 529 
Q 2819 -91 2034 -91 
Q 1250 -91 836 529 
Q 422 1150 422 2328 
Q 422 3509 836 4129 
Q 1250 4750 2034 4750 
z
" transform="scale(0.015625)"/>
        <path id="DejaVuSans-2e" d="M 684 794 
L 1344 794 
L 1344 0 
L 684 0 
L 684 794 
z
" transform="scale(0.015625)"/>
        <path id="DejaVuSans-31" d="M 794 531 
L 1825 531 
L 1825 4091 
L 703 3866 
L 703 4441 
L 1819 4666 
L 2450 4666 
L 2450 531 
L 3481 531 
L 3481 0 
L 794 0 
L 794 531 
z
" transform="scale(0.015625)"/>
        <path id="DejaVuSans-35" d="M 691 4666 
L 3169 4666 
L 3169 4134 
L 1269 4134 
L 1269 2991 
Q 1406 3038 1543 3061 
Q 1681 3084 1819 3084 
Q 2600 3084 3056 2656 
Q 3513 2228 3513 1497 
Q 3513 744 3044 326 
Q 2575 -91 1722 -91 
Q 1428 -91 1123 -41 
Q 819 9 494 109 
L 494 744 
Q 775 591 1075 516 
Q 1375 441 1709 441 
Q 2250 441 2565 725 
Q 2881 1009 2881 1497 
Q 2881 1984 2565 2268 
Q 2250 2553 1709 2553 
Q 1456 2553 1204 2497 
Q 953 2441 691 2322 
L 691 4666 
z
" transform="scale(0.015625)"/>
       </defs>
       <use xlink:href="#DejaVuSans-2212"/>
       <use xlink:href="#DejaVuSans-30" x="83.789062"/>
       <use xlink:href="#DejaVuSans-2e" x="147.412109"/>
       <use xlink:href="#DejaVuSans-31" x="179.199219"/>
       <use xlink:href="#DejaVuSans-35" x="242.822266"/>
      </g>
     </g>
    </g>
    <g id="ytick_2">
     <g id="line2d_4">
      <g>
       <use xlink:href="#m8e65868119" x="216" y="431.52" style="stroke: #000000; stroke-width: 0.8"/>
      </g>
     </g>
     <g id="text_5">
      <!-- −0.10 -->
      <g transform="translate(178.354688 435.319219)scale(0.1 -0.1)">
       <use xlink:href="#DejaVuSans-2212"/>
       <use xlink:href="#DejaVuSans-30" x="83.789062"/>
       <use xlink:href="#DejaVuSans-2e" x="147.412109"/>
       <use xlink:href="#DejaVuSans-31" x="179.199219"/>
       <use xlink:href="#DejaVuSans-30" x="242.822266"/>
      </g>
     </g>
    </g>
    <g id="ytick_3">
     <g id="line2d_5">
      <g>
       <use xlink:href="#m8e65868119" x="216" y="359.04" style="stroke: #000000; stroke-width: 0.8"/>
      </g>
     </g>
     <g id="text_6">
      <!-- −0.05 -->
      <g transform="translate(178.354688 362.839219)scale(0.1 -0.1)">
       <use xlink:href="#DejaVuSans-2212"/>
       <use xlink:href="#DejaVuSans-30" x="83.789062"/>
       <use xlink:href="#DejaVuSans-2e" x="147.412109"/>
       <use xlink:href="#DejaVuSans-30" x="179.199219"/>
       <use xlink:href="#DejaVuSans-35" x="242.822266"/>
      </g>
     </g>
    </g>
    <g id="ytick_4">
     <g id="line2d_6">
      <g>
       <use xlink:href="#m8e65868119" x="216" y="286.56" style="stroke: #000000; stroke-width: 0.8"/>
      </g>
     </g>
     <g id="text_7">
      <!-- 0.00 -->
      <g transform="translate(186.734375 290.359219)scale(0.1 -0.1)">
       <use xlink:href="#DejaVuSans-30"/>
       <use xlink:href="#DejaVuSans-2e" x="63.623047"/>
       <use xlink:href="#DejaVuSans-30" x="95.410156"/>
       <use xlink:href="#DejaVuSans-30" x="159.033203"/>
      </g>
     </g>
    </g>
    <g id="ytick_5">
     <g id="line2d_7">
      <g>
       <use xlink:href="#m8e65868119" x="216" y="214.08" style="stroke: #000000; stroke-width: 0.8"/>
      </g>
     </g>
     <g id="text_8">
      <!-- 0.05 -->
      <g transform="translate(186.734375 217.879219)scale(0.1 -0.1)">
       <use xlink:href="#DejaVuSans-30"/>
       <use xlink:href="#DejaVuSans-2e" x="63.623047"/>
       <use xlink:href="#DejaVuSans-30" x="95.410156"/>
       <use xlink:href="#DejaVuSans-35" x="159.033203"/>
      </g>
     </g>
    </g>
    <g id="ytick_6">
     <g id="line2d_8">
      <g>
       <use xlink:href="#m8e65868119" x="216" y="141.6" style="stroke: #000000; stroke-width: 0.8"/>
      </g>
     </g>
     <g id="text_9">
      <!-- 0.10 -->
      <g transform="translate(186.734375 145.399219)scale(0.1 -0.1)">
       <use xlink:href="#DejaVuSans-30"/>
       <use xlink:href="#DejaVuSans-2e" x="63.623047"/>
       <use xlink:href="#DejaVuSans-31" x="95.410156"/>
       <use xlink:href="#DejaVuSans-30" x="159.033203"/>
      </g>
     </g>
    </g>
    <g id="ytick_7">
     <g id="line2d_9">
      <g>
       <use xlink:href="#m8e65868119" x="216" y="69.12" style="stroke: #000000; stroke-width: 0.8"/>
      </g>
     </g>
     <g id="text_10">
      <!-- 0.15 -->
      <g transform="translate(186.734375 72.919219)scale(0.1 -0.1)">
       <use xlink:href="#DejaVuSans-30"/>
       <use xlink:href="#DejaVuSans-2e" x="63.623047"/>
       <use xlink:href="#DejaVuSans-31" x="95.410156"/>
       <use xlink:href="#DejaVuSans-35" x="159.033203"/>
      </g>
     </g>
    </g>
    <g id="text_11">
     <!-- Plane residual (m) -->
     <g transform="translate(172.275 332.032656)rotate(-90)scale(0.1 -0.1)">
      <defs>
       <path id="DejaVuSans-50" d="M 1259 4147 
L 1259 2394 
L 2053 2394 
Q 2494 2394 2734 2622 
Q 2975 2850 2975 3272 
Q 2975 3691 2734 3919 
Q 2494 4147 2053 4147 
L 1259 4147 
z
M 628 4666 
L 2053 4666 
Q 2838 4666 3239 4311 
Q 3641 3956 3641 3272 
Q 3641 2581 3239 2228 
Q 2838 1875 2053 1875 
L 1259 1875 
L 1259 0 
L 628 0 
L 628 4666 
z
" transform="scale(0.015625)"/>
       <path id="DejaVuSans-6e" d="M 3513 2113 
L 3513 0 
L 2938 0 
L 2938 2094 
Q 2938 2591 2744 2837 
Q 2550 3084 2163 3084 
Q 1697 3084 1428 2787 
Q 1159 2491 1159 1978 
L 1159 0 
L 581 0 
L 581 3500 
L 1159 3500 
L 1159 2956 
Q 1366 3272 1645 3428 
Q 1925 3584 2291 3584 
Q 2894 3584 3203 3211 
Q 3513 2838 3513 2113 
z
" transform="scale(0.015625)"/>
       <path id="DejaVuSans-20" transform="scale(0.015625)"/>
       <path id="DejaVuSans-73" d="M 2834 3397 
L 2834 2853 
Q 2591 2978 2328 3040 
Q 2066 3103 1784 3103 
Q 1356 3103 1142 2972 
Q 928 2841 928 2578 
Q 928 2378 1081 2264 
Q 1234 2150 1697 2047 
L 1894 2003 
Q 2506 1872 2764 1633 
Q 3022 1394 3022 966 
Q 3022 478 2636 193 
Q 2250 -91 1575 -91 
Q 1294 -91 989 -36 
Q 684 19 347 128 
L 347 722 
Q 666 556 975 473 
Q 1284 391 1588 391 
Q 1994 391 2212 530 
Q 2431 669 2431 922 
Q 2431 1156 2273 1281 
Q 2116 1406 1581 1522 
L 1381 1569 
Q 847 1681 609 1914 
Q 372 2147 372 2553 
Q 372 3047 722 3315 
Q 1072 3584 1716 3584 
Q 2034 3584 2315 3537 
Q 2597 3491 2834 3397 
z
" transform="scale(0.015625)"/>
       <path id="DejaVuSans-69" d="M 603 3500 
L 1178 3500 
L 1178 0 
L 603 0 
L 603 3500 
z
M 603 4863 
L 1178 4863 
L 1178 4134 
L 603 4134 
L 603 4863 
z
" transform="scale(0.015625)"/>
       <path id="DejaVuSans-64" d="M 2906 2969 
L 2906 4863 
L 3481 4863 
L 3481 0 
L 2906 0 
L 2906 525 
Q 2725 213 2448 61 
Q 2172 -91 1784 -91 
Q 1150 -91 751 415 
Q 353 922 353 1747 
Q 353 2572 751 3078 
Q 1150 3584 1784 3584 
Q 2172 3584 2448 3432 
Q 2725 3281 2906 2969 
z
M 947 1747 
Q 947 1113 1208 752 
Q 1469 391 1925 391 
Q 2381 391 2643 752 
Q 2906 1113 2906 1747 
Q 2906 2381 2643 2742 
Q 2381 3103 1925 3103 
Q 1469 3103 1208 2742 
Q 947 2381 947 1747 
z
" transform="scale(0.015625)"/>
       <path id="DejaVuSans-28" d="M 1984 4856 
Q 1566 4138 1362 3434 
Q 1159 2731 1159 2009 
Q 1159 1288 1364 580 
Q 1569 -128 1984 -844 
L 1484 -844 
Q 1016 -109 783 600 
Q 550 1309 550 2009 
Q 550 2706 781 3412 
Q 1013 4119 1484 4856 
L 1984 4856 
z
" transform="scale(0.015625)"/>
       <path id="DejaVuSans-6d" d="M 3328 2828 
Q 3544 3216 3844 3400 
Q 4144 3584 4550 3584 
Q 5097 3584 5394 3201 
Q 5691 2819 5691 2113 
L 5691 0 
L 5113 0 
L 5113 2094 
Q 5113 2597 4934 2840 
Q 4756 3084 4391 3084 
Q 3944 3084 3684 2787 
Q 3425 2491 3425 1978 
L 3425 0 
L 2847 0 
L 2847 2094 
Q 2847 2600 2669 2842 
Q 2491 3084 2119 3084 
Q 1678 3084 1418 2786 
Q 1159 2488 1159 1978 
L 1159 0 
L 581 0 
L 581 3500 
L 1159 3500 
L 1159 2956 
Q 1356 3278 1631 3431 
Q 1906 3584 2284 3584 
Q 2666 3584 2933 3390 
Q 3200 3197 3328 2828 
z
" transform="scale(0.015625)"/>
       <path id="DejaVuSans-29" d="M 513 4856 
L 1013 4856 
Q 1481 4119 1714 3412 
Q 1947 2706 1947 2009 
Q 1947 1309 1714 600 
Q 1481 -109 1013 -844 
L 513 -844 
Q 928 -128 1133 580 
Q 1338 1288 1338 2009 
Q 1338 2731 1133 3434 
Q 928 4138 513 4856 
z
" transform="scale(0.015625)"/>
      </defs>
      <use xlink:href="#DejaVuSans-50"/>
      <use xlink:href="#DejaVuSans-6c" x="60.302734"/>
      <use xlink:href="#DejaVuSans-61" x="88.085938"/>
      <use xlink:href="#DejaVuSans-6e" x="149.365234"/>
      <use xlink:href="#DejaVuSans-65" x="212.744141"/>
      <use xlink:href="#DejaVuSans-20" x="274.267578"/>
      <use xlink:href="#DejaVuSans-72" x="306.054688"/>
      <use xlink:href="#DejaVuSans-65" x="344.917969"/>
      <use xlink:href="#DejaVuSans-73" x="406.441406"/>
      <use xlink:href="#DejaVuSans-69" x="458.541016"/>
      <use xlink:href="#DejaVuSans-64" x="486.324219"/>
      <use xlink:href="#DejaVuSans-75" x="549.800781"/>
      <use xlink:href="#DejaVuSans-61" x="613.179688"/>
      <use xlink:href="#DejaVuSans-6c" x="674.458984"/>
      <use xlink:href="#DejaVuSans-20" x="702.242188"/>
      <use xlink:href="#DejaVuSans-28" x="734.029297"/>
      <use xlink:href="#DejaVuSans-6d" x="773.042969"/>
      <use xlink:href="#DejaVuSans-29" x="870.455078"/>
     </g>
    </g>
   </g>
   <g id="LineCollection_1">
    <path d="M 378.327273 285.162297 
L 581.236364 285.162297 
" clip-path="url(#p7d2a234cca)" style="fill: none; stroke: #1f77b4; stroke-width: 1.5"/>
   </g>
   <g id="LineCollection_2">
    <path d="M 378.327273 178.78079 
L 581.236364 178.78079 
" clip-path="url(#p7d2a234cca)" style="fill: none; stroke: #1f77b4; stroke-width: 1.5"/>
   </g>
   <g id="LineCollection_3">
    <path d="M 378.327273 401.522123 
L 581.236364 401.522123 
" clip-path="url(#p7d2a234cca)" style="fill: none; stroke: #1f77b4; stroke-width: 1.5"/>
   </g>
   <g id="LineCollection_4">
    <path d="M 479.781818 401.522123 
L 479.781818 178.78079 
" clip-path="url(#p7d2a234cca)" style="fill: none; stroke: #1f77b4; stroke-width: 1.5"/>
   </g>
   <g id="LineCollection_5">
    <path d="M 1189.963636 285.396949 
L 1392.872727 285.396949 
" clip-path="url(#p7d2a234cca)" style="fill: none; stroke: #ff7f0e; stroke-width: 1.5"/>
   </g>
   <g id="LineCollection_6">
    <path d="M 1189.963636 74.802432 
L 1392.872727 74.802432 
" clip-path="url(#p7d2a234cca)" style="fill: none; stroke: #ff7f0e; stroke-width: 1.5"/>
   </g>
   <g id="LineCollection_7">
    <path d="M 1189.963636 444.85777 
L 1392.872727 444.85777 
" clip-path="url(#p7d2a234cca)" style="fill: none; stroke: #ff7f0e; stroke-width: 1.5"/>
   </g>
   <g id="LineCollection_8">
    <path d="M 1291.418182 444.85777 
L 1291.418182 74.802432 
" clip-path="url(#p7d2a234cca)" style="fill: none; stroke: #ff7f0e; stroke-width: 1.5"/>
   </g>
   <g id="patch_3">
    <path d="M 216 504 
L 216 69.12 
" style="fill: none; stroke: #000000; stroke-width: 0.8; stroke-linejoin: miter; stroke-linecap: square"/>
   </g>
   <g id="patch_4">
    <path d="M 1555.2 504 
L 1555.2 69.12 
" style="fill: none; stroke: #000000; stroke-width: 0.8; stroke-linejoin: miter; stroke-linecap: square"/>
   </g>
   <g id="patch_5">
    <path d="M 216 504 
L 1555.2 504 
" style="fill: none; stroke: #000000; stroke-width: 0.8; stroke-linejoin: miter; stroke-linecap: square"/>
   </g>
   <g id="patch_6">
    <path d="M 216 69.12 
L 1555.2 69.12 
" style="fill: none; stroke: #000000; stroke-width: 0.8; stroke-linejoin: miter; stroke-linecap: square"/>
   </g>
  </g>
 </g>
 <defs>
  <clipPath id="p7d2a234cca">
   <rect x="216" y="69.12" width="1339.2" height="434.88"/>
  </clipPath>
 </defs>
</svg>
